# xmcd
#
# Track frame offsets:
# 150
# 8635
# 23466
# 28093
# 42690
# 58322
# 83591
# 95949
# 106015
# 116339
# 130993
# 147117
# 164565
# 170977
# 172326
# 183781
# 195782
# 206006
# 217884
# 227317
# 237157
# 251613
#
# Disc length: 3549 seconds
#
#
# Revision: 0
# Processed by: cddbd v1.5.2PL0 Copyright (c) Steve Scherf et al.
# Submitted via: FreeRIP 2.951 
#
DISCID=290ddb16
DTITLE=J Dilla - The Shining and Jay Loves Japan
DYEAR=1900
DGENRE=Hip-Hop
TTITLE0=Geek Down(Busta Rhymes)
TTITLE1=EMC2(COmmon)
TTITLE2=Love JOnes
TTITLE3=Love(Pharoahe Monch)
TTITLE4=Baby(Madlib G Simpson)
TTITLE5=So far to go
TTITLE6=Jungle Love(MED G simpson)
TTITLE7=Over The Breaks
TTITLE8=Body Movin(J Rocc)
TTITLE9=Dime Pieces Remix(Dwele)
TTITLE10=Love Movin(Black Thought)
TTITLE11=Wont Do
TTITLE12=Believe In God(Ma Dukes)
TTITLE13=Say It Int
TTITLE14=Say It(DJ Exile)
TTITLE15=Fantasy(Pacific Division)
TTITLE16=Red Light(JDavey)
TTITLE17=Lucy(BoBoLamb)
TTITLE18=Ghetto Love(Truth Hurts)
TTITLE19=Cant You See
TTITLE20=In The Streets
TTITLE21=Sun In My Face(Blu and Jontel)
EXTD=
EXTT0=
EXTT1=
EXTT2=
EXTT3=
EXTT4=
EXTT5=
EXTT6=
EXTT7=
EXTT8=
EXTT9=
EXTT10=
EXTT11=
EXTT12=
EXTT13=
EXTT14=
EXTT15=
EXTT16=
EXTT17=
EXTT18=
EXTT19=
EXTT20=
EXTT21=
PLAYORDER=
